<svg width="20" height="20" viewBox="0 0 20 20" fill="none" xmlns="http://www.w3.org/2000/svg">
<g clip-path="url(#clip0_806_1369)">
<path d="M6.64401 2.983C6.61076 2.9826 6.57776 2.98884 6.54695 3.00135C6.51614 3.01386 6.48813 3.03239 6.46457 3.05586C6.44101 3.07932 6.42237 3.10725 6.40974 3.13802C6.39711 3.16878 6.39074 3.20175 6.39101 3.235C6.39101 3.374 6.50401 3.486 6.64401 3.486H10.357C10.497 3.486 10.61 3.374 10.61 3.235C10.6103 3.20175 10.6039 3.16878 10.5913 3.13802C10.5786 3.10725 10.56 3.07932 10.5364 3.05586C10.5129 3.03239 10.4849 3.01386 10.4541 3.00135C10.4233 2.98884 10.3903 2.9826 10.357 2.983H6.64401ZM10.357 1.641C11.091 1.641 11.71 2.131 11.901 2.801L14.076 2.802C14.697 2.806 15.198 3.007 15.508 3.44C15.774 3.812 15.88 4.29 15.853 4.827L15.85 17.84C15.892 18.392 15.788 18.88 15.522 19.285C15.21 19.758 14.701 19.995 14.07 20.001H3.14001C2.38001 19.971 1.81701 19.792 1.46501 19.392C1.13801 19.021 0.995009 18.512 1.00101 17.892V4.84C0.988009 4.24 1.15501 3.734 1.51901 3.36C1.89501 2.976 2.45101 2.806 3.16601 2.801H5.10101C5.29101 2.131 5.91001 1.641 6.64401 1.641H10.357ZM10.357 4.828H6.64401C6.09801 4.828 5.61701 4.558 5.32701 4.144H3.17001C2.78701 4.146 2.56801 4.214 2.48801 4.296C2.39701 4.389 2.34401 4.548 2.35001 4.827V17.897C2.34701 18.222 2.40201 18.419 2.48001 18.507C2.53401 18.568 2.76601 18.642 3.16501 18.658H14.065C14.265 18.656 14.345 18.618 14.391 18.549C14.482 18.411 14.524 18.215 14.501 17.891L14.502 4.795C14.516 4.502 14.475 4.313 14.406 4.217C14.38 4.182 14.29 4.145 14.07 4.144H11.673C11.383 4.558 10.902 4.828 10.356 4.828M17.2 0C18.194 0 19 0.801 19 1.79V15.872C19 16.86 18.194 17.662 17.2 17.662H15.242V16.319H17.199C17.448 16.319 17.649 16.119 17.649 15.872V1.789C17.6482 1.67017 17.6005 1.55648 17.5161 1.47274C17.4318 1.389 17.3178 1.342 17.199 1.342H9.64301C9.39501 1.342 9.19301 1.542 9.19301 1.789V1.946H7.84301V1.789C7.84301 0.801 8.64901 0 9.64301 0H17.2ZM8.19601 11.751C8.56901 11.751 8.87101 12.051 8.87101 12.422C8.87101 12.792 8.56901 13.093 8.19601 13.093H4.14501C4.05663 13.0934 3.96904 13.0764 3.88723 13.0429C3.80543 13.0095 3.73102 12.9602 3.66825 12.898C3.60547 12.8358 3.55557 12.7618 3.52138 12.6803C3.4872 12.5988 3.4694 12.5114 3.46901 12.423C3.46901 12.052 3.77201 11.751 4.14501 11.751H8.19601ZM12.248 9.067C12.62 9.067 12.923 9.367 12.923 9.738C12.923 10.108 12.62 10.409 12.248 10.409H4.14501C4.05663 10.4094 3.96904 10.3924 3.88723 10.3589C3.80543 10.3255 3.73102 10.2762 3.66825 10.214C3.60547 10.1518 3.55557 10.0778 3.52138 9.99632C3.4872 9.91482 3.4694 9.82738 3.46901 9.739C3.46901 9.368 3.77201 9.067 4.14501 9.067H12.248ZM12.248 6.383C12.62 6.383 12.923 6.683 12.923 7.054C12.923 7.425 12.62 7.725 12.248 7.725H4.14501C4.05663 7.72539 3.96904 7.70838 3.88723 7.67492C3.80543 7.64146 3.73102 7.59222 3.66825 7.53001C3.60547 7.46779 3.55557 7.39382 3.52138 7.31232C3.4872 7.23082 3.4694 7.14338 3.46901 7.055C3.46901 6.684 3.77201 6.383 4.14501 6.383H12.248Z" fill="#6D6D6D"/>
</g>
<defs>
<clipPath id="clip0_806_1369">
<rect width="20" height="20" fill="white"/>
</clipPath>
</defs>
</svg>
