<svg width="23" height="21" viewBox="0 0 23 21" fill="none" xmlns="http://www.w3.org/2000/svg">
<path d="M22.6922 10.4805C22.6922 11.1836 22.1062 11.7344 21.4422 11.7344H20.1922L20.2195 17.9883C20.2195 18.0977 20.2117 18.1992 20.2 18.3047V18.9375C20.2 19.8008 19.5008 20.5 18.6375 20.5H18.0125C17.9695 20.5 17.9266 20.4648 17.8836 20.4961C17.8289 20.4648 17.7742 20.5 17.7195 20.5H15.5125C14.6492 20.5 13.95 19.8008 13.95 18.9375V15.5C13.95 14.8086 13.3914 14.25 12.7 14.25H10.2C9.50859 14.25 8.95 14.8086 8.95 15.5V18.9375C8.95 19.8008 8.25078 20.5 7.3875 20.5H5.2039C5.14531 20.5 5.08672 20.4961 5.02812 20.4922C4.98125 20.4961 4.93437 20.5 4.8875 20.5H4.2625C3.39961 20.5 2.7 19.8008 2.7 18.9375V14.5625C2.7 14.5273 2.70117 14.4883 2.70351 14.4531V11.7344H1.45195C0.747653 11.7344 0.199997 11.1836 0.199997 10.4805C0.199997 10.1289 0.317341 9.81641 0.591013 9.54297L10.6062 0.813125C10.8797 0.539141 11.1922 0.5 11.4656 0.5C11.7391 0.5 12.0516 0.578281 12.2898 0.773984L22.2625 9.54297C22.575 9.81641 22.7352 10.1289 22.6922 10.4805Z" fill="#6D6D6D"/>
</svg>
