<svg width="20" height="20" viewBox="0 0 20 20" fill="none" xmlns="http://www.w3.org/2000/svg">
<path d="M1.14001 15C0.716761 14.2691 0.387809 13.4875 0.161011 12.674C0.654365 12.4232 1.06872 12.0408 1.35825 11.5691C1.64777 11.0974 1.80117 10.5548 1.80148 10.0014C1.80179 9.44794 1.649 8.9052 1.36001 8.4332C1.07101 7.96119 0.657083 7.57833 0.164011 7.32697C0.616168 5.69273 1.47646 4.2003 2.66401 2.98997C3.12812 3.29198 3.66675 3.45964 4.22027 3.47441C4.77378 3.48917 5.32059 3.35045 5.80013 3.07362C6.27968 2.79678 6.67325 2.39263 6.93727 1.90591C7.20129 1.41919 7.32545 0.868903 7.29601 0.315971C8.93826 -0.10764 10.6613 -0.106607 12.303 0.318971C12.2742 0.871653 12.3988 1.42154 12.663 1.90781C12.9273 2.39408 13.3209 2.79778 13.8003 3.07424C14.2797 3.3507 14.8263 3.48915 15.3795 3.47428C15.9328 3.45941 16.4711 3.29179 16.935 2.98997C18.1214 4.20128 18.9824 5.6928 19.438 7.32597C18.9447 7.57687 18.5304 7.95935 18.241 8.43108C17.9515 8.90281 17.7982 9.44541 17.798 9.99886C17.7978 10.5523 17.9507 11.095 18.2398 11.567C18.5289 12.0389 18.9429 12.4217 19.436 12.673C18.9836 14.3073 18.1229 15.7998 16.935 17.01C16.4709 16.708 15.9323 16.5403 15.3788 16.5255C14.8252 16.5108 14.2784 16.6495 13.7989 16.9263C13.3193 17.2032 12.9258 17.6073 12.6618 18.094C12.3977 18.5807 12.2736 19.131 12.303 19.684C10.6608 20.1079 8.93784 20.1072 7.29601 19.682C7.32493 19.1294 7.20043 18.5795 6.9363 18.0933C6.67217 17.607 6.27869 17.2033 5.79939 16.9267C5.32008 16.6502 4.77363 16.5116 4.22046 16.5263C3.66729 16.541 3.12896 16.7084 2.66501 17.01C2.0735 16.4071 1.56175 15.7317 1.14001 15ZM6.79901 15.196C7.8642 15.8111 8.66527 16.7973 9.04901 17.966C9.54901 18.0126 10.0487 18.0133 10.548 17.968C10.9313 16.7986 11.7324 15.8116 12.798 15.196C13.8639 14.5804 15.1193 14.3796 16.324 14.632C16.614 14.2226 16.8633 13.79 17.072 13.334C16.2524 12.4169 15.7995 11.2299 15.8 9.99997C15.8 8.73997 16.27 7.56297 17.073 6.66597C16.8642 6.21078 16.6131 5.77621 16.323 5.36797C15.1193 5.61961 13.865 5.41882 12.8 4.80397C11.7348 4.18883 10.9338 3.20263 10.55 2.03397C10.05 1.98664 9.55001 1.9863 9.05001 2.03297C8.66648 3.20201 7.86539 4.18859 6.80001 4.80397C5.73416 5.41956 4.4787 5.62038 3.27401 5.36797C2.98334 5.7773 2.73434 6.20997 2.52701 6.66597C3.34701 7.58288 3.80024 8.76988 3.80001 9.99997C3.80001 11.26 3.32901 12.437 2.52701 13.334C2.73583 13.7892 2.98693 14.2237 3.27701 14.632C4.48074 14.3803 5.73499 14.5811 6.80001 15.196M9.80001 13C9.00436 13 8.2413 12.6839 7.67869 12.1213C7.11608 11.5587 6.80001 10.7956 6.80001 9.99997C6.80001 9.20432 7.11608 8.44126 7.67869 7.87865C8.2413 7.31604 9.00436 6.99997 9.80001 6.99997C10.5957 6.99997 11.3587 7.31604 11.9213 7.87865C12.4839 8.44126 12.8 9.20432 12.8 9.99997C12.8 10.7956 12.4839 11.5587 11.9213 12.1213C11.3587 12.6839 10.5957 13 9.80001 13ZM9.80001 11C10.0652 11 10.3196 10.8946 10.5071 10.7071C10.6947 10.5195 10.8 10.2652 10.8 9.99997C10.8 9.73475 10.6947 9.4804 10.5071 9.29286C10.3196 9.10533 10.0652 8.99997 9.80001 8.99997C9.53479 8.99997 9.28044 9.10533 9.0929 9.29286C8.90537 9.4804 8.80001 9.73475 8.80001 9.99997C8.80001 10.2652 8.90537 10.5195 9.0929 10.7071C9.28044 10.8946 9.53479 11 9.80001 11Z" fill="#6D6D6D"/>
</svg>
