<svg width="21" height="21" viewBox="0 0 21 21" fill="none" xmlns="http://www.w3.org/2000/svg">
<path d="M12.6 10.5H14.1V13.32L16.54 14.73L15.79 16.03L12.6 14.19V10.5ZM2.60001 0.5H16.6C17.1304 0.5 17.6391 0.710714 18.0142 1.08579C18.3893 1.46086 18.6 1.96957 18.6 2.5V8.6C19.84 9.86 20.6 11.59 20.6 13.5C20.6 15.3565 19.8625 17.137 18.5498 18.4497C17.237 19.7625 15.4565 20.5 13.6 20.5C11.69 20.5 9.96001 19.74 8.70001 18.5H2.60001C2.06957 18.5 1.56087 18.2893 1.18579 17.9142C0.81072 17.5391 0.600006 17.0304 0.600006 16.5V2.5C0.600006 1.96957 0.81072 1.46086 1.18579 1.08579C1.56087 0.710714 2.06957 0.5 2.60001 0.5ZM2.60001 13.5V16.5H7.27001C6.84001 15.59 6.60001 14.57 6.60001 13.5H2.60001ZM2.60001 6.5H8.60001V3.5H2.60001V6.5ZM16.6 6.5V3.5H10.6V6.5H16.6ZM2.60001 11.5H6.89001C7.23001 10.35 7.86001 9.32 8.70001 8.5H2.60001V11.5ZM13.6 8.65C12.3137 8.65 11.0801 9.16098 10.1705 10.0705C9.26099 10.9801 8.75001 12.2137 8.75001 13.5C8.75001 16.18 10.92 18.35 13.6 18.35C14.2369 18.35 14.8676 18.2246 15.456 17.9808C16.0444 17.7371 16.5791 17.3798 17.0295 16.9295C17.4798 16.4791 17.8371 15.9444 18.0808 15.356C18.3246 14.7676 18.45 14.1369 18.45 13.5C18.45 10.82 16.28 8.65 13.6 8.65Z" fill="#6D6D6D"/>
</svg>
